<svg xmlns="http://www.w3.org/2000/svg" viewBox="0 0 547.88 110.22"><defs><style>.cls-1{fill:#fff8e8;}</style></defs><title>Asset 1</title><g id="Layer_2" data-name="Layer 2"><g id="Layer_1-2" data-name="Layer 1"><path class="cls-1" d="M538.12,103.11,533.4,103l-1.77-3-61.57-1.15,60.88,0L528.68,95l-24,.5,23.6-1.12-3-5A387.55,387.55,0,0,1,449.26,88c-41.54-5-77.8-9.84-93.37-9-14.51.82-23.33,4.53-28.71,8.59-5.65-4.06-14.89-7.76-30-8.66-16.37-1-54.52,3.65-98.23,8.45a428.44,428.44,0,0,1-80,1l-4,6.43L139.5,96l-25.06-.52-2.39,3.81,62.76,0-63.51,1.16-1.55,2.47-5.22.18a.75.75,0,0,0-.63.82l.05,5.29a.73.73,0,0,0,.64.79l208.13-5.55a.64.64,0,0,1,.58.46l1.76,4.64a.64.64,0,0,0,.58.46h22.9a.66.66,0,0,0,.59-.51l1.35-4.4a.66.66,0,0,1,.61-.51L538,110a.73.73,0,0,0,.64-.78l.07-5.3A.74.74,0,0,0,538.12,103.11ZM336.81,98.63l-10.36,2.84-11.31-2.57L225.5,101,317,97.53l9.74,2.8,8.9-3.06,86.2,4.41Z"/><path class="cls-1" d="M212.53,76.92c3-.16,20.57-33,27-45.4,7-3.06,13.71-5.4,16-4,4.57,2.74-19,25.81-25,28.87a.46.46,0,0,0-.29.73c-1.43.56-2.43,1.45-.86,1.93,7.14,2.42,17,17.26,18.57,19.19,1.43,1.45,7.29-2.58,6.71-3.23-2.71-4.19-11-11.61-17.43-15.81,8.43-5.81,24.71-21.77,24.86-28.06C262,28.05,255.53,25.23,252,25c-2.57-.16-6.14.73-10.14,2.18.14-.08.29-.48.29-.48.29-.4-1-.81-1.43-.32,0,0-.43.81-1,1.69-9.43,3.87-19.86,10.32-21.29,12.18-.71.64,2.57,1.77,2.86,1.37.43-.73,7.86-5.16,15.71-8.87-7.57,12.9-24.57,41.29-26.71,41.45-1.57.16,7.86-16,11.29-23.55.57-1.29-8.71-.73-9,.16-2.71,5.24-10,19.19-9,22.9C203.81,74.91,211.81,77,212.53,76.92Z"/><path class="cls-1" d="M250.52,65.81c.57,2.61,8.29,5.66,10.86,5.49,5.15-.38,10.9-5.36,14.52-9.08-2,4.5-3.39,9-2.83,11.23.29,1.31,8.86,2.7,9.57,2.61,2.43-.17,7.86-9.58,11.43-16.29h.14c-1.29,4.7-2.14,9.5-1.43,12.11.29,1.31,7.29,3.14,8,3,1.92-.14,4.67-4,6.89-7.7a5.48,5.48,0,0,0,.13.69c.29,1.27,8.86,2.63,9.57,2.54,1.14-.08,3.71-4.23,6.43-9.65.57,1.1.86,1.95,1,1.78s.29-.08.57-.17c-2.86,9.82-2.29,13.71-2.14,16,0,.66.63.9,1.53.86a12.94,12.94,0,0,0,5.86-.84c2.16-1.35,4.66-6.71,6.4-11,0,.21.06.42.11.61.29,1.31,6.71,3.66,7.43,3.57,2.22-.16,5.91-5.53,8.53-9.83,1.89,1,7.16,1.94,7.75,1.94,1,0,4.57-4.7,7.71-9-3.14,6.53-6.43,14.46-5.71,17.16.29,1.31,9.29,2.61,10,2.53,2.86-.2,8.76-9,11.33-13,.75,1.32,8.81,2.59,9.5,2.51,1.57-.09,4.43-4.26,7-8.89,0,.09.14.09.14.18-3.27,11.44-8.26,19.22-10.67,20.51-2.59,1.38-12-2.71-12.75-2-.28.24-.2.81-.07,1.22.27.86,12.9,4.25,16.5,2.68,7.22-6.24,17.28-34.15,17.56-35.14.57-.82-5.14-1.54-5.57-.54,0,0-2.43,4.35-5.29,9a7.84,7.84,0,0,0-2.29-3.35c-1.86-1.36-7.43-1.36-9.43.54a20.48,20.48,0,0,0-4.87,11.07C383.3,60,374,72.5,371.27,72.75c-1.57.17,5.43-17.6,8-25.26.29-.87-6-2.27-7-.35-.14,0-.29.09-.29.17s-11.57,14.81-12.57,14.81c-1.57,0,1.29-5,5.29-11.5.86-1.31-6.86-1.66-7.14-.35a63.09,63.09,0,0,0-4.5,8.37c-2.57,3.91-7.44,10.92-9.5,11.11C342,69.93,345,58.08,348.42,50c.57-1.39-6.57-.87-6.86.09a57.21,57.21,0,0,0-4,11l-.24.27s-3.45,13.17-6.27,14h0c-3.55-4.28,9.69-41.51,10.57-44.38.57-.76-6-1.44-6.43-.51,0,.08-.29.59-.57,1.44,0,.08-.14.08-.14.17s-6,14-11.29,24.37A5.3,5.3,0,0,0,321.94,55c-1.86-1.27-7.43-1.27-9.43.51a18.75,18.75,0,0,0-4,6.6c-2.5,3.54-7.59,10.41-9.71,10.6-1.57.17,2.86-12.11,5.29-19.78.43-1.31-7.14-1.39-7.71-.17-.14.09-.29.09-.29.17s-1,1.74-2.43,4.09c-.71-1.92-1.57-3.83-3-4.88-1.86-1.31-8-1.48-9.43.52a49.24,49.24,0,0,0-3.14,5.1c-.22.24-8.8,9.5-17,11.22-2,.44-1.86-2.18-.71-5.58.57.52,1.57,1,2,.7,1.57-1.13,9.57-11,9.14-12,.29-1.57-6.86-4.88-9.57-3.48C254,52.92,249.66,61.8,250.52,65.81ZM396.38,48.06c1,.18,2.29,2.45,3.14,4.44-3,4.81-6.43,9.61-7.71,9.7S392.53,47.51,396.38,48.06Zm-66.3-1L325.66,61.4l-1-2.46C326.51,55.13,328.37,51,330.09,47.09Zm-10,8.47c.71.08,1.57,1.27,2.29,2.54-3,5.93-5.86,10.59-6.86,10.67C314.09,68.94,316.23,55,320.09,55.56Zm-31.3-2.84c1.29.17,2.86,3.83,3.86,5.84-3.86,6.27-9.86,15.59-11.71,15.77C279.5,74.5,284.93,52.2,288.78,52.72Zm-19.69-1.54c1.57,0-4.29,6.53-8,10.45C263.24,56.75,267,51.18,269.09,51.18Z"/><path class="cls-1" d="M349.42,47.45a23.89,23.89,0,0,1,1.43-3.4c.57-1-4.86-.78-6.14-.09a7.39,7.39,0,0,0-2.14,3.4C342.27,48.58,349.42,48.32,349.42,47.45Z"/><path class="cls-1" d="M428.5,83.64c2.89-.15,19.79-29.81,26-41,6.74-2.77,13.2-4.88,15.39-3.64,4.4,2.48-18.28,23.32-24.05,26.09-.41.15-.41.44-.27.66-1.37.51-2.34,1.31-.83,1.75,6.87,2.19,16.36,15.6,17.87,17.35,1.38,1.31,7-2.33,6.46-2.92-2.61-3.79-10.58-10.49-16.77-14.28,8.11-5.25,23.78-19.68,23.92-25.36-.14-2.77-6.32-5.32-9.76-5.54-2.47-.15-5.91.66-9.76,2,.14-.07.28-.44.28-.44.27-.36-1-.73-1.37-.29,0,0-.41.73-1,1.53-9.07,3.5-19.11,9.33-20.48,11-.69.58,2.47,1.6,2.75,1.24.41-.66,7.56-4.66,15.12-8C444.72,55.36,428.36,81,426.3,81.16c-1.51.15,7.56-14.5,10.86-21.28.55-1.17-8.38-.66-8.66.15-2.61,4.74-9.62,17.35-8.66,20.7C420.12,81.82,427.81,83.71,428.5,83.64Z"/><path class="cls-1" d="M542.49,54.53v.09c-.14,0-.41.09-.41.19S533.14,72.71,530.39,73c-1.51.19.27-5.34,4.12-12.37.69-1.22-4.67-1.5-6-.56-.14,0-.27.09-.27.19l-.38.76a36.64,36.64,0,0,0-2.64,5c-2.89,5.25-7,12.27-8.66,12.46s.28-5.34,4.12-12.37c.8-1.37-5.67-1.58-6.27-.29a33.41,33.41,0,0,1-7.62,1h-1.51a10.4,10.4,0,0,0-3-.33l-.27.25c-.41,0-.55-.08-.83-.08A42.68,42.68,0,0,1,504,62.32c.82-1-8-.84-8.52-.08-.28.4-.61.94-1,1.59a33.44,33.44,0,0,1-7.42.94h-1.51a10.4,10.4,0,0,0-3-.33l-.27.25c-.41,0-.55-.08-.83-.08a42.68,42.68,0,0,1,2.89-4.27c.83-1-8-.84-8.52-.08-1.92,2.77-6.46,12.32-5.5,17.35.28,1.51,5.91,3.6,8.38,3.52,6.19-.08,10.86-6.2,10.86-11a5.52,5.52,0,0,0-1-3.35,33,33,0,0,0,5.14-1.5c-2.06,4.08-4.49,10.5-3.76,14.32.27,1.51,5.91,3.6,8.38,3.52,6.19-.08,10.86-6.2,10.86-11a5.52,5.52,0,0,0-1-3.35,33.07,33.07,0,0,0,5.16-1.51c-2.35,3.93-3.77,8.62-3.64,10s7.56,2.9,8.25,2.81c1.51-.09,3.85-3.65,6-7.68,1.51,1.22,7,2.34,7.7,2.25,2.06-.09,5.5-6.46,8.11-11.8-2.89,9.93-7.42,25.76-7.15,30,0,2.72,9.35,1.31,8.52-1.22-4-5.53,6.32-35.51,6.6-36.54C548.4,54.25,542.9,53.5,542.49,54.53Zm-65,25.23c-3.3,0-.28-7.29,2.89-13.08a23.3,23.3,0,0,0,5.22.33C490.93,70.46,484.34,79.76,477.46,79.76Zm19.65,2c-3.3,0-.27-7.29,2.89-13.08a23.3,23.3,0,0,0,5.22.33C510.59,72.46,504,81.76,497.12,81.76Z"/><path class="cls-1" d="M157.64,49.35c-.14,0-.27.08-.27.16s-11.13,13.71-12.1,13.71c-1.51,0,6.6-24.83,10.45-30.88.26-.38-.3-.67-1.19-.86-.07-.33-.24-.56-.54-.58-2.92-.37-8.76-.52-15.72-.6,0-.08.14-.15.14-.23.56-1.2-6.68-1.42-7.09-.3l-.28.53c-15,.15-32,.82-36.31,1.57-1.39.08-2.92,5.47-.14,4.8,4.31-1,20.45-1.87,34.92-2.25-4.73,12.3-16.41,42.89-17,45.82-.42,1.87,7.93,3.3,11,3.3,1.71,0,10.9-14.85,15.06-21.71a2,2,0,0,0,0,.41c.14,1.21,7.42,2.42,8.11,2.42,1.1,0,5.77-6,8.93-10.32-3.57,9.43-8.8,27.09-7.83,29.27.83,2,9.48,1.85,8.8-.65-3.85-3.63,5.36-26.2,7.83-33.3C164.65,48.86,158.6,47.57,157.64,49.35Zm-18.4,8.78s-14.75,22.2-17.39,22.2,9.6-33.29,14.75-46c4.28-.08,8.13-.1,11.13,0-2.37,5.38-6.27,17.27-8.13,23.71A.66.66,0,0,0,139.23,58.12Z"/><path class="cls-1" d="M108.15,49.13c.26-1.31-1.75-2.47-3.61-2.47H24.35a3,3,0,0,0-3,3.12s-.1.55-.24,1.55c-4.31-.75-8.27-.46-11.45,1.11-6.45,3.18-11.44,11.15-9,21C3.94,87,19.45,95.3,26.83,98.47a45.16,45.16,0,0,0,6.56,9.87c1,1.08,1.49,1.88,3,1.88H92.64c1.52,0,2.09-.68,3-1.87C112,87.3,108.15,49.13,108.15,49.13ZM9.74,73.43c-1.37-6.57,1.56-11.42,4.84-13a9.55,9.55,0,0,1,5.7-.51,91.38,91.38,0,0,0,2.51,27.69C17.16,84.28,11,79.42,9.74,73.43Zm95.52-5.33c0,2.18,0-14.45-3.27-15.81S64.1,50.1,64.1,50.1s39.52-1.64,40.61-.27S105.26,65.91,105.26,68.09Z"/><path class="cls-1" d="M58.51,38.82c-2.33-12.86-3-24.05,16.9-24,21.78.1,39.1,11.72,70,1.08,15.12-5.2,62.82,26.27,42.59,51.22-1,1-8.8,9.13-16.25,10.7-1.92.42-1.79-2.1-.69-5.36.55.5,1.51.92,1.92.67,1.51-1.09,9.21-10.56,8.8-11.57.27-1.51-6.6-4.69-9.21-3.35-7.7,4.11-11.82,12.66-11,16.51.55,2.51,8,5.45,10.45,5.28,5.73-.42,12.24-6.77,15.45-10.31h0c29-28.43-23.7-74.11-50.16-66.72C124.14,6.69,107.77,11.2,94,7.53,56.93-2.35,48.84-1.14,40.09,3.38,26.11,10.59,40.37,29.63,58.51,38.82ZM179.45,60.68c1.51,0-4.12,6.29-7.7,10.06C173.82,66,177.39,60.68,179.45,60.68Z"/></g></g></svg>