<?xml version="1.0" encoding="utf-8"?>
<!-- Generator: Adobe Illustrator 21.1.0, SVG Export Plug-In . SVG Version: 6.00 Build 0)  -->
<svg version="1.1" id="Layer_1" xmlns="http://www.w3.org/2000/svg" xmlns:xlink="http://www.w3.org/1999/xlink" x="0px" y="0px"
	 viewBox="0 0 145 145" style="enable-background:new 0 0 145 145;" xml:space="preserve">
<path d="M72.9,3.3C34.6,3.3,3.4,34.5,3.4,72.9s31.2,69.6,69.6,69.6s69.6-31.2,69.6-69.6S111.3,3.3,72.9,3.3z M72.9,141.4
	c-19.3,0-36.8-8-49.2-20.9l88.4-4.5h0h0c1.7,0,2.3-0.8,3.3-2.2c17.9-24.9,13.6-70,13.6-70c0.3-1.5-1.9-2.9-3.9-2.9H37.6
	c-2,0-3.6,2.1-3.3,3.7c0,0-0.1,0.6-0.3,1.8c-4.7-0.9-9-0.5-12.5,1.3c-7,3.8-12.5,13.2-9.8,24.9c3.6,16,20.6,25.8,28.6,29.6
	c1.9,4.1,4.2,8.1,7.2,11.7c0.3,0.4,0.6,0.8,0.9,1.1l-29.9-0.5C9.6,102.8,4.4,88.5,4.4,72.9c0-17.6,6.6-33.6,17.5-45.8
	c1.5-0.4,15.4-4.2,26.4,4.1c15.2,11.4,27.3,2.6,38.8-5.7c5.4-3.8,24.3-1.2,21.1,13.9c11.6-11.8-2.8-33.5-24.4-27
	c-19.9,6-29.6,10.5-40.5,3.8c-2.7-1.7-2.7-3.2-2.1-4.2c9.4-4.9,20.2-7.7,31.5-7.7c37.8,0,68.6,30.8,68.6,68.6
	S110.7,141.4,72.9,141.4z M44.4,62c-2.7,0.8-1.2-3.3,0.1-3.4c2.7-0.5,9.9-0.9,18.4-1.1l3.3-9.9c0-1,7.5-0.9,6.9,0.4
	c-0.8,1.8-1.9,5.2-3.1,9.4c12.3-0.1,25.2,0.3,30.1,1.1c1.2,0.1,0.3,2-0.8,2c-2-0.2-16.4-0.4-30.2-0.1c-4.1,14-9.1,33.7-8,33.5
	c2.2-0.2,7.8-9.4,9.8-12.8c-1.8-0.2-2.9-1.1-2.9-3c0-1.4,1.2-5.7,4.7-7.8c0.9-1.5,6,1.3,4.7,2.2C76.3,74,73,78.1,74,78.9
	c0.9,1,4.2-0.8,7.2-2.3c1.2-1.3,6-0.6,5.4,0.3c-5.3,7.9-8.7,25-5.7,25.2c2.3,0.2,9.7-16.5,11.6-21c-1.9-0.2-3.1-1.1-3.1-3
	c0-1.4,1.2-5.7,4.7-7.8c0.9-1.5,6,1.3,4.7,2.2c-1.2,1.5-4.5,5.6-3.5,6.4c0.9,1,4.2-0.8,7.2-2.3c1.2-1.3,6-0.6,5.4,0.3
	c-5.3,7.9-8.7,25-5.7,25.2c2.7,0.2,12.1-22.1,12.1-22.1c0.1-0.6,1.6-0.4,1.1,0.7c0,0-8.8,23.3-12.3,23.6c-0.7,0.1-9.1-0.4-9.4-1.8
	c-1.2-5,4.7-17.9,7.5-23.2c-2.6,1-5.3,1.7-7.3,1.9c-1.2,3.1-8.9,22.9-12.2,23.1c-0.7,0.1-9.1-0.4-9.4-1.8c-1.2-5,4.7-17.9,7.5-23.2
	c-2.6,1-5.1,1.7-7.2,1.8c-1.6,3.4-7.3,15-10.3,15.3c-0.7,0.1-8.9-2.1-9.2-3.4c-0.7-2.8,4.7-19.8,8.8-32.4C53.9,60.8,47,61.3,44.4,62
	z M81.6,44.9c0,0,43.1-1.9,44.3-0.3c1.2,1.6,0.6,19,0.6,21.6c0,2.6,0-17.1-3.6-18.7S81.6,44.9,81.6,44.9z M35.8,89.2
	c-6.1-3.9-12.9-9.6-14.2-16.7c-1.5-7.8,1.7-13.5,5.3-15.4c1.6-0.9,3.7-1,6.2-0.6C32.7,65.1,32.9,77.2,35.8,89.2z"/>
</svg>
